# xmcd
#
# Track frame offsets:
#	180
#	36062
#	44011
#	60536
#	76985
#	87346
#	103593
#	119984
#	134144
#	148219
#	166393
#	188392
#	201291
#	225127
#	237522
#	244791
#
# Disc length: 3471 seconds
#
# Revision: 1
# Processed by: cddbd v1.4PL0 Copyright (c) Steve Scherf et al.
# Submitted via: audiograbber 1.80
#
DISCID=e40d8d10
DTITLE=WILLIE NELSON - TO ALL THE GIRLS I VE LOVED BEFORE
DYEAR=1900
DGENRE=
TTITLE0=WILLIE NELSON - MEDLEY
TTITLE1=WILLIE NELSON - IF YOU GOT THE MONEY HONEY  I VE GOT THE TIME
TTITLE2=WILLIE NELSON - GEORGIA ON MY MIND
TTITLE3=WILLIE NELSON - STARDUST
TTITLE4=WILLIE NELSON - ON THE ROAD AGAIN
TTITLE5=WILLIE NELSON - YOU RE ALWAYS ON MY MIND
TTITLE6=WILLIE NELSON - ANGEL FLYING TO CLOSE TO THE GROUND
TTITLE7=WILLIE NELSON - GOOD HEARTED WOMAN
TTITLE8=WILLIE NELSON - BLUE EYES CRYING IN THE RAIN
TTITLE9=WILLIE NELSON - THE RED HEADED STRANGER
TTITLE10=WILLIE NELSON - CITY OF NEW ORLEANS
TTITLE11=WILLIE NELSON - TO ALL THE GIRLS I VE LOVED BEFORE
TTITLE12=WILLIE NELSON - TILL I GAIN CONTROL AGAIN
TTITLE13=WILLIE NELSON - SEVEN SPANISH ANGELS
TTITLE14=WILLIE NELSON - LUCKENBACH TEXAS
TTITLE15=WILLIE NELSON - WHISKEY RIVER
EXTD=
EXTT0=
EXTT1=
EXTT2=
EXTT3=
EXTT4=
EXTT5=
EXTT6=
EXTT7=
EXTT8=
EXTT9=
EXTT10=
EXTT11=
EXTT12=
EXTT13=
EXTT14=
EXTT15=
PLAYORDER=
